<mxfile host="www.draw.io" modified="2020-06-09T08:42:48.611Z" agent="5.0 (Macintosh; Intel Mac OS X 10_14_3) AppleWebKit/537.36 (KHTML, like Gecko) Chrome/83.0.4103.61 Safari/537.36" etag="x07HldgfS-R9I1adZBSR" version="13.0.9" type="github">
  <diagram id="CenPe5wazf7ipsyOj9qG" name="Page-1">
    <mxGraphModel dx="1351" dy="872" grid="0" gridSize="10" guides="1" tooltips="1" connect="1" arrows="1" fold="1" page="1" pageScale="1" pageWidth="4681" pageHeight="3300" math="0" shadow="0">
      <root>
        <mxCell id="0" />
        <mxCell id="1" parent="0" />
        <mxCell id="C-JLcWPwSZFHcR_2FFlx-1" value="" style="rounded=1;whiteSpace=wrap;html=1;" parent="1" vertex="1">
          <mxGeometry x="380" y="240" width="462" height="148" as="geometry" />
        </mxCell>
        <mxCell id="C-JLcWPwSZFHcR_2FFlx-2" value="mesh-manager" style="rounded=1;whiteSpace=wrap;html=1;" parent="1" vertex="1">
          <mxGeometry x="280" y="120" width="100" height="40" as="geometry" />
        </mxCell>
        <mxCell id="C-JLcWPwSZFHcR_2FFlx-3" value="&lt;span&gt;metaCluster&lt;br&gt;(mesh)&lt;br&gt;&lt;/span&gt;" style="text;html=1;align=center;verticalAlign=middle;resizable=0;points=[];autosize=1;" parent="1" vertex="1">
          <mxGeometry x="390" y="242" width="80" height="30" as="geometry" />
        </mxCell>
        <mxCell id="C-JLcWPwSZFHcR_2FFlx-7" style="edgeStyle=orthogonalEdgeStyle;rounded=0;orthogonalLoop=1;jettySize=auto;html=1;exitX=0.5;exitY=1;exitDx=0;exitDy=0;entryX=0.5;entryY=0;entryDx=0;entryDy=0;exitPerimeter=0;strokeWidth=2;" parent="1" source="WnvBsMHK7SKsE7ENXAmm-34" target="C-JLcWPwSZFHcR_2FFlx-4" edge="1">
          <mxGeometry relative="1" as="geometry">
            <mxPoint x="300" y="30" as="targetPoint" />
          </mxGeometry>
        </mxCell>
        <mxCell id="C-JLcWPwSZFHcR_2FFlx-4" value="api-server" style="rounded=1;whiteSpace=wrap;html=1;" parent="1" vertex="1">
          <mxGeometry x="450" y="300" width="60" height="30" as="geometry" />
        </mxCell>
        <mxCell id="WnvBsMHK7SKsE7ENXAmm-2" value="" style="shape=link;html=1;dashed=1;dashPattern=1 1;strokeWidth=1;" parent="1" edge="1">
          <mxGeometry width="50" height="50" relative="1" as="geometry">
            <mxPoint x="190" y="410" as="sourcePoint" />
            <mxPoint x="1220" y="410" as="targetPoint" />
          </mxGeometry>
        </mxCell>
        <mxCell id="WnvBsMHK7SKsE7ENXAmm-3" value="proxy" style="rounded=1;whiteSpace=wrap;html=1;" parent="1" vertex="1">
          <mxGeometry x="581" y="340" width="89" height="30" as="geometry" />
        </mxCell>
        <mxCell id="WnvBsMHK7SKsE7ENXAmm-33" style="edgeStyle=orthogonalEdgeStyle;curved=1;rounded=0;orthogonalLoop=1;jettySize=auto;html=1;exitX=0;exitY=0.5;exitDx=0;exitDy=0;entryX=1;entryY=0.5;entryDx=0;entryDy=0;strokeWidth=2;" parent="1" source="WnvBsMHK7SKsE7ENXAmm-4" target="C-JLcWPwSZFHcR_2FFlx-4" edge="1">
          <mxGeometry relative="1" as="geometry" />
        </mxCell>
        <mxCell id="WnvBsMHK7SKsE7ENXAmm-4" value="istiod" style="rounded=1;whiteSpace=wrap;html=1;" parent="1" vertex="1">
          <mxGeometry x="550" y="270" width="60" height="30" as="geometry" />
        </mxCell>
        <mxCell id="WnvBsMHK7SKsE7ENXAmm-5" value="kube-operator" style="rounded=1;whiteSpace=wrap;html=1;" parent="1" vertex="1">
          <mxGeometry x="630" y="270" width="60" height="30" as="geometry" />
        </mxCell>
        <mxCell id="WnvBsMHK7SKsE7ENXAmm-6" value="tracing" style="rounded=1;whiteSpace=wrap;html=1;" parent="1" vertex="1">
          <mxGeometry x="740" y="300" width="60" height="30" as="geometry" />
        </mxCell>
        <mxCell id="WnvBsMHK7SKsE7ENXAmm-7" value="prometheus" style="rounded=1;whiteSpace=wrap;html=1;" parent="1" vertex="1">
          <mxGeometry x="740" y="260" width="70" height="30" as="geometry" />
        </mxCell>
        <mxCell id="WnvBsMHK7SKsE7ENXAmm-8" value="" style="shape=link;html=1;strokeWidth=1;" parent="1" edge="1">
          <mxGeometry width="50" height="50" relative="1" as="geometry">
            <mxPoint x="210" y="190" as="sourcePoint" />
            <mxPoint x="1220" y="190" as="targetPoint" />
          </mxGeometry>
        </mxCell>
        <mxCell id="WnvBsMHK7SKsE7ENXAmm-10" value="" style="endArrow=classic;html=1;strokeWidth=2;entryX=0.25;entryY=0;entryDx=0;entryDy=0;exitX=0.25;exitY=1;exitDx=0;exitDy=0;fillColor=#008a00;strokeColor=#005700;" parent="1" source="WnvBsMHK7SKsE7ENXAmm-4" target="WnvBsMHK7SKsE7ENXAmm-3" edge="1">
          <mxGeometry width="50" height="50" relative="1" as="geometry">
            <mxPoint x="380" y="590" as="sourcePoint" />
            <mxPoint x="430" y="540" as="targetPoint" />
          </mxGeometry>
        </mxCell>
        <mxCell id="WnvBsMHK7SKsE7ENXAmm-13" value="" style="endArrow=classic;html=1;strokeWidth=2;entryX=0.5;entryY=1;entryDx=0;entryDy=0;exitX=0.38;exitY=0.001;exitDx=0;exitDy=0;exitPerimeter=0;fillColor=#0050ef;strokeColor=#001DBC;" parent="1" source="WnvBsMHK7SKsE7ENXAmm-3" target="WnvBsMHK7SKsE7ENXAmm-4" edge="1">
          <mxGeometry width="50" height="50" relative="1" as="geometry">
            <mxPoint x="330" y="490" as="sourcePoint" />
            <mxPoint x="380" y="440" as="targetPoint" />
          </mxGeometry>
        </mxCell>
        <mxCell id="WnvBsMHK7SKsE7ENXAmm-14" value="" style="endArrow=classic;html=1;strokeWidth=2;entryX=0.75;entryY=0;entryDx=0;entryDy=0;exitX=0.5;exitY=1;exitDx=0;exitDy=0;fillColor=#008a00;strokeColor=#005700;" parent="1" source="WnvBsMHK7SKsE7ENXAmm-5" target="WnvBsMHK7SKsE7ENXAmm-3" edge="1">
          <mxGeometry width="50" height="50" relative="1" as="geometry">
            <mxPoint x="500" y="400" as="sourcePoint" />
            <mxPoint x="550" y="350" as="targetPoint" />
          </mxGeometry>
        </mxCell>
        <mxCell id="WnvBsMHK7SKsE7ENXAmm-15" value="" style="rounded=1;whiteSpace=wrap;html=1;" parent="1" vertex="1">
          <mxGeometry x="200" y="245" width="160" height="142" as="geometry" />
        </mxCell>
        <mxCell id="WnvBsMHK7SKsE7ENXAmm-16" value="&lt;span&gt;metaCluster&lt;br&gt;(tke)&lt;br&gt;&lt;/span&gt;" style="text;html=1;align=center;verticalAlign=middle;resizable=0;points=[];autosize=1;" parent="1" vertex="1">
          <mxGeometry x="210" y="251" width="80" height="30" as="geometry" />
        </mxCell>
        <mxCell id="WnvBsMHK7SKsE7ENXAmm-17" value="api-server" style="rounded=1;whiteSpace=wrap;html=1;fillColor=#dae8fc;strokeColor=#6c8ebf;" parent="1" vertex="1">
          <mxGeometry x="220" y="301" width="60" height="30" as="geometry" />
        </mxCell>
        <mxCell id="WnvBsMHK7SKsE7ENXAmm-18" value="" style="rounded=1;whiteSpace=wrap;html=1;fillColor=#dae8fc;strokeColor=#6c8ebf;" parent="1" vertex="1">
          <mxGeometry x="230" y="480" width="120" height="60" as="geometry" />
        </mxCell>
        <mxCell id="WnvBsMHK7SKsE7ENXAmm-19" value="" style="endArrow=classic;html=1;strokeWidth=2;exitX=0.5;exitY=1;exitDx=0;exitDy=0;edgeStyle=orthogonalEdgeStyle;curved=1;entryX=0.5;entryY=0;entryDx=0;entryDy=0;fillColor=#008a00;strokeColor=#005700;" parent="1" source="WnvBsMHK7SKsE7ENXAmm-3" target="WnvBsMHK7SKsE7ENXAmm-20" edge="1">
          <mxGeometry width="50" height="50" relative="1" as="geometry">
            <mxPoint x="620" y="490" as="sourcePoint" />
            <mxPoint x="300" y="450" as="targetPoint" />
            <Array as="points">
              <mxPoint x="626" y="400" />
              <mxPoint x="250" y="400" />
            </Array>
          </mxGeometry>
        </mxCell>
        <mxCell id="WnvBsMHK7SKsE7ENXAmm-20" value="" style="shape=image;html=1;verticalAlign=top;verticalLabelPosition=bottom;labelBackgroundColor=#ffffff;imageAspect=0;aspect=fixed;image=https://cdn0.iconfinder.com/data/icons/zondicons/20/load-balancer-128.png;rotation=-180;" parent="1" vertex="1">
          <mxGeometry x="235" y="331" width="30" height="30" as="geometry" />
        </mxCell>
        <mxCell id="WnvBsMHK7SKsE7ENXAmm-21" value="&lt;span&gt;node&lt;br&gt;&lt;/span&gt;" style="text;html=1;align=center;verticalAlign=middle;resizable=0;points=[];autosize=1;" parent="1" vertex="1">
          <mxGeometry x="230" y="480" width="40" height="20" as="geometry" />
        </mxCell>
        <mxCell id="WnvBsMHK7SKsE7ENXAmm-22" value="pod" style="ellipse;whiteSpace=wrap;html=1;fillColor=#dae8fc;strokeColor=#6c8ebf;" parent="1" vertex="1">
          <mxGeometry x="275" y="501" width="30" height="20" as="geometry" />
        </mxCell>
        <mxCell id="WnvBsMHK7SKsE7ENXAmm-24" value="" style="rounded=1;whiteSpace=wrap;html=1;fillColor=#dae8fc;strokeColor=#6c8ebf;" parent="1" vertex="1">
          <mxGeometry x="235" y="485" width="120" height="60" as="geometry" />
        </mxCell>
        <mxCell id="WnvBsMHK7SKsE7ENXAmm-25" value="&lt;span&gt;node&lt;br&gt;&lt;/span&gt;" style="text;html=1;align=center;verticalAlign=middle;resizable=0;points=[];autosize=1;" parent="1" vertex="1">
          <mxGeometry x="235" y="485" width="40" height="20" as="geometry" />
        </mxCell>
        <mxCell id="WnvBsMHK7SKsE7ENXAmm-26" value="pod" style="ellipse;whiteSpace=wrap;html=1;fillColor=#dae8fc;strokeColor=#6c8ebf;" parent="1" vertex="1">
          <mxGeometry x="280" y="501" width="30" height="20" as="geometry" />
        </mxCell>
        <mxCell id="WnvBsMHK7SKsE7ENXAmm-27" value="" style="rounded=1;whiteSpace=wrap;html=1;fillColor=#dae8fc;strokeColor=#6c8ebf;" parent="1" vertex="1">
          <mxGeometry x="240" y="491" width="120" height="60" as="geometry" />
        </mxCell>
        <mxCell id="WnvBsMHK7SKsE7ENXAmm-28" value="&lt;span&gt;node&lt;br&gt;&lt;/span&gt;" style="text;html=1;align=center;verticalAlign=middle;resizable=0;points=[];autosize=1;" parent="1" vertex="1">
          <mxGeometry x="240" y="491" width="40" height="20" as="geometry" />
        </mxCell>
        <mxCell id="WnvBsMHK7SKsE7ENXAmm-32" style="edgeStyle=orthogonalEdgeStyle;curved=1;rounded=0;orthogonalLoop=1;jettySize=auto;html=1;exitX=1;exitY=0;exitDx=0;exitDy=0;strokeWidth=2;" parent="1" source="WnvBsMHK7SKsE7ENXAmm-29" target="WnvBsMHK7SKsE7ENXAmm-31" edge="1">
          <mxGeometry relative="1" as="geometry" />
        </mxCell>
        <mxCell id="WnvBsMHK7SKsE7ENXAmm-29" value="pod" style="ellipse;whiteSpace=wrap;html=1;fillColor=#dae8fc;strokeColor=#6c8ebf;" parent="1" vertex="1">
          <mxGeometry x="285" y="511" width="30" height="20" as="geometry" />
        </mxCell>
        <mxCell id="WnvBsMHK7SKsE7ENXAmm-23" style="edgeStyle=orthogonalEdgeStyle;curved=1;rounded=0;orthogonalLoop=1;jettySize=auto;html=1;exitX=0.5;exitY=0;exitDx=0;exitDy=0;strokeWidth=2;fillColor=#0050ef;strokeColor=#001DBC;entryX=0.538;entryY=0.038;entryDx=0;entryDy=0;entryPerimeter=0;" parent="1" source="WnvBsMHK7SKsE7ENXAmm-29" target="WnvBsMHK7SKsE7ENXAmm-30" edge="1">
          <mxGeometry relative="1" as="geometry">
            <mxPoint x="645" y="401" as="targetPoint" />
          </mxGeometry>
        </mxCell>
        <mxCell id="WnvBsMHK7SKsE7ENXAmm-30" value="" style="shape=image;html=1;verticalAlign=top;verticalLabelPosition=bottom;labelBackgroundColor=#ffffff;imageAspect=0;aspect=fixed;image=https://cdn0.iconfinder.com/data/icons/zondicons/20/load-balancer-128.png;rotation=-180;" parent="1" vertex="1">
          <mxGeometry x="630" y="370" width="30" height="30" as="geometry" />
        </mxCell>
        <mxCell id="WnvBsMHK7SKsE7ENXAmm-31" value="" style="shape=image;html=1;verticalAlign=top;verticalLabelPosition=bottom;labelBackgroundColor=#ffffff;imageAspect=0;aspect=fixed;image=https://cdn0.iconfinder.com/data/icons/zondicons/20/load-balancer-128.png;rotation=-180;" parent="1" vertex="1">
          <mxGeometry x="755" y="330" width="30" height="30" as="geometry" />
        </mxCell>
        <mxCell id="WnvBsMHK7SKsE7ENXAmm-34" value="" style="outlineConnect=0;dashed=0;verticalLabelPosition=bottom;verticalAlign=top;align=center;html=1;shape=mxgraph.aws3.customer_gateway;fillColor=#F58534;gradientColor=none;" parent="1" vertex="1">
          <mxGeometry x="465.5" y="160" width="29" height="26" as="geometry" />
        </mxCell>
        <mxCell id="WnvBsMHK7SKsE7ENXAmm-35" style="edgeStyle=orthogonalEdgeStyle;rounded=0;orthogonalLoop=1;jettySize=auto;html=1;exitX=1;exitY=0.5;exitDx=0;exitDy=0;entryX=0.5;entryY=0;entryDx=0;entryDy=0;strokeWidth=2;" parent="1" source="C-JLcWPwSZFHcR_2FFlx-2" target="WnvBsMHK7SKsE7ENXAmm-34" edge="1">
          <mxGeometry relative="1" as="geometry">
            <mxPoint x="380" y="140" as="sourcePoint" />
            <mxPoint x="480" y="300" as="targetPoint" />
          </mxGeometry>
        </mxCell>
        <mxCell id="WKPzv3yv-QxGR1gTnkBv-1" value="" style="rounded=1;whiteSpace=wrap;html=1;" vertex="1" parent="1">
          <mxGeometry x="1049" y="248" width="160" height="142" as="geometry" />
        </mxCell>
        <mxCell id="WKPzv3yv-QxGR1gTnkBv-2" value="&lt;span&gt;metaCluster&lt;br&gt;(tke)&lt;br&gt;&lt;/span&gt;" style="text;html=1;align=center;verticalAlign=middle;resizable=0;points=[];autosize=1;" vertex="1" parent="1">
          <mxGeometry x="1059" y="254" width="80" height="30" as="geometry" />
        </mxCell>
        <mxCell id="WKPzv3yv-QxGR1gTnkBv-3" value="api-server" style="rounded=1;whiteSpace=wrap;html=1;fillColor=#d5e8d4;strokeColor=#82b366;" vertex="1" parent="1">
          <mxGeometry x="1069" y="304" width="60" height="30" as="geometry" />
        </mxCell>
        <mxCell id="WKPzv3yv-QxGR1gTnkBv-4" value="" style="rounded=1;whiteSpace=wrap;html=1;fillColor=#d5e8d4;strokeColor=#82b366;" vertex="1" parent="1">
          <mxGeometry x="1079" y="483" width="120" height="60" as="geometry" />
        </mxCell>
        <mxCell id="WKPzv3yv-QxGR1gTnkBv-5" value="" style="shape=image;html=1;verticalAlign=top;verticalLabelPosition=bottom;labelBackgroundColor=#ffffff;imageAspect=0;aspect=fixed;image=https://cdn0.iconfinder.com/data/icons/zondicons/20/load-balancer-128.png;rotation=-180;" vertex="1" parent="1">
          <mxGeometry x="1084" y="334" width="30" height="30" as="geometry" />
        </mxCell>
        <mxCell id="WKPzv3yv-QxGR1gTnkBv-6" value="&lt;span&gt;node&lt;br&gt;&lt;/span&gt;" style="text;html=1;align=center;verticalAlign=middle;resizable=0;points=[];autosize=1;" vertex="1" parent="1">
          <mxGeometry x="1079" y="483" width="40" height="20" as="geometry" />
        </mxCell>
        <mxCell id="WKPzv3yv-QxGR1gTnkBv-7" value="pod" style="ellipse;whiteSpace=wrap;html=1;fillColor=#d5e8d4;strokeColor=#82b366;" vertex="1" parent="1">
          <mxGeometry x="1124" y="504" width="30" height="20" as="geometry" />
        </mxCell>
        <mxCell id="WKPzv3yv-QxGR1gTnkBv-8" value="" style="rounded=1;whiteSpace=wrap;html=1;fillColor=#d5e8d4;strokeColor=#82b366;" vertex="1" parent="1">
          <mxGeometry x="1084" y="488" width="120" height="60" as="geometry" />
        </mxCell>
        <mxCell id="WKPzv3yv-QxGR1gTnkBv-9" value="&lt;span&gt;node&lt;br&gt;&lt;/span&gt;" style="text;html=1;align=center;verticalAlign=middle;resizable=0;points=[];autosize=1;" vertex="1" parent="1">
          <mxGeometry x="1084" y="488" width="40" height="20" as="geometry" />
        </mxCell>
        <mxCell id="WKPzv3yv-QxGR1gTnkBv-10" value="pod" style="ellipse;whiteSpace=wrap;html=1;fillColor=#d5e8d4;strokeColor=#82b366;" vertex="1" parent="1">
          <mxGeometry x="1129" y="504" width="30" height="20" as="geometry" />
        </mxCell>
        <mxCell id="WKPzv3yv-QxGR1gTnkBv-11" value="" style="rounded=1;whiteSpace=wrap;html=1;fillColor=#d5e8d4;strokeColor=#82b366;" vertex="1" parent="1">
          <mxGeometry x="1089" y="494" width="120" height="60" as="geometry" />
        </mxCell>
        <mxCell id="WKPzv3yv-QxGR1gTnkBv-12" value="&lt;span&gt;node&lt;br&gt;&lt;/span&gt;" style="text;html=1;align=center;verticalAlign=middle;resizable=0;points=[];autosize=1;" vertex="1" parent="1">
          <mxGeometry x="1089" y="494" width="40" height="20" as="geometry" />
        </mxCell>
        <mxCell id="WKPzv3yv-QxGR1gTnkBv-13" value="pod" style="ellipse;whiteSpace=wrap;html=1;fillColor=#d5e8d4;strokeColor=#82b366;" vertex="1" parent="1">
          <mxGeometry x="1134" y="514" width="30" height="20" as="geometry" />
        </mxCell>
        <mxCell id="WKPzv3yv-QxGR1gTnkBv-14" value="" style="rounded=1;whiteSpace=wrap;html=1;" vertex="1" parent="1">
          <mxGeometry x="860" y="245" width="160" height="142" as="geometry" />
        </mxCell>
        <mxCell id="WKPzv3yv-QxGR1gTnkBv-15" value="&lt;span&gt;metaCluster&lt;br&gt;(mesh)&lt;br&gt;&lt;/span&gt;" style="text;html=1;align=center;verticalAlign=middle;resizable=0;points=[];autosize=1;" vertex="1" parent="1">
          <mxGeometry x="873" y="250" width="75" height="32" as="geometry" />
        </mxCell>
        <mxCell id="WKPzv3yv-QxGR1gTnkBv-22" style="rounded=0;orthogonalLoop=1;jettySize=auto;html=1;exitX=0.25;exitY=0;exitDx=0;exitDy=0;entryX=0.644;entryY=0.033;entryDx=0;entryDy=0;strokeWidth=2;fillColor=#0050ef;strokeColor=#001DBC;edgeStyle=orthogonalEdgeStyle;curved=1;entryPerimeter=0;" edge="1" parent="1" source="WKPzv3yv-QxGR1gTnkBv-18" target="WnvBsMHK7SKsE7ENXAmm-4">
          <mxGeometry relative="1" as="geometry">
            <Array as="points">
              <mxPoint x="911" y="230" />
              <mxPoint x="589" y="230" />
            </Array>
          </mxGeometry>
        </mxCell>
        <mxCell id="WKPzv3yv-QxGR1gTnkBv-18" value="proxy" style="rounded=1;whiteSpace=wrap;html=1;" vertex="1" parent="1">
          <mxGeometry x="889" y="321" width="89" height="30" as="geometry" />
        </mxCell>
        <mxCell id="WKPzv3yv-QxGR1gTnkBv-19" value="" style="shape=image;html=1;verticalAlign=top;verticalLabelPosition=bottom;labelBackgroundColor=#ffffff;imageAspect=0;aspect=fixed;image=https://cdn0.iconfinder.com/data/icons/zondicons/20/load-balancer-128.png;rotation=-180;" vertex="1" parent="1">
          <mxGeometry x="902" y="351" width="30" height="30" as="geometry" />
        </mxCell>
        <mxCell id="WKPzv3yv-QxGR1gTnkBv-20" value="" style="endArrow=classic;html=1;strokeWidth=2;entryX=0.5;entryY=0;entryDx=0;entryDy=0;exitX=0.618;exitY=1;exitDx=0;exitDy=0;exitPerimeter=0;edgeStyle=orthogonalEdgeStyle;curved=1;fillColor=#008a00;strokeColor=#005700;" edge="1" parent="1" source="WKPzv3yv-QxGR1gTnkBv-18" target="WKPzv3yv-QxGR1gTnkBv-5">
          <mxGeometry width="50" height="50" relative="1" as="geometry">
            <mxPoint x="896" y="525" as="sourcePoint" />
            <mxPoint x="946" y="475" as="targetPoint" />
            <Array as="points">
              <mxPoint x="944" y="402" />
              <mxPoint x="1099" y="402" />
            </Array>
          </mxGeometry>
        </mxCell>
        <mxCell id="WKPzv3yv-QxGR1gTnkBv-21" value="" style="endArrow=classic;html=1;strokeWidth=2;exitX=0.5;exitY=0;exitDx=0;exitDy=0;entryX=0.5;entryY=0;entryDx=0;entryDy=0;edgeStyle=orthogonalEdgeStyle;curved=1;fillColor=#0050ef;strokeColor=#001DBC;" edge="1" parent="1" source="WKPzv3yv-QxGR1gTnkBv-13" target="WKPzv3yv-QxGR1gTnkBv-19">
          <mxGeometry width="50" height="50" relative="1" as="geometry">
            <mxPoint x="931" y="571" as="sourcePoint" />
            <mxPoint x="1044" y="472" as="targetPoint" />
          </mxGeometry>
        </mxCell>
        <mxCell id="WKPzv3yv-QxGR1gTnkBv-24" style="rounded=0;orthogonalLoop=1;jettySize=auto;html=1;exitX=0.253;exitY=-0.032;exitDx=0;exitDy=0;strokeWidth=2;fillColor=#008a00;strokeColor=#005700;entryX=0.5;entryY=0;entryDx=0;entryDy=0;exitPerimeter=0;edgeStyle=orthogonalEdgeStyle;curved=1;" edge="1" parent="1" source="WnvBsMHK7SKsE7ENXAmm-4" target="WKPzv3yv-QxGR1gTnkBv-18">
          <mxGeometry relative="1" as="geometry">
            <Array as="points">
              <mxPoint x="565" y="215" />
              <mxPoint x="934" y="215" />
            </Array>
          </mxGeometry>
        </mxCell>
      </root>
    </mxGraphModel>
  </diagram>
</mxfile>
